<svg xmlns="http://www.w3.org/2000/svg" width="64" height="64" viewBox="0 0 64 64">
  <style>
    path {
      fill: black;
    }
    @media (prefers-color-scheme: dark) {
      path { fill: white; }
    }
  </style>
  <path fill-rule="evenodd" stroke-width="3.77953" d="M31.996.1A31.9 31.9 0 0 0 .1 32.002 31.9 31.9 0 0 0 32.002 63.9 31.9 31.9 0 0 0 63.9 32H45.268v12.785c0 1.662-1.338 3-3 3H21.732c-1.662 0-3-1.338-3-3v-15.64c0-1.662 1.338-3 3-3h20.536c1.662 0 3 1.338 3 3v2.853l18.632-.004A31.9 31.9 0 0 0 31.996.1Zm.002 10.632c5.87 0 10.632 5.859 10.633 13.086h-2.826c-.001-5.854-3.495-10.6-7.805-10.6-4.31.001-7.805 4.748-7.805 10.602H21.37c0-7.227 4.758-13.087 10.629-13.088zM32 32a2.546 2.546 0 0 0-2.547 2.547 2.546 2.546 0 0 0 .93 1.965h-.033a.213.213 0 0 1 .04.008 2.546 2.546 0 0 0 .003 0 2.546 2.546 0 0 0 .128.097c.579.764-.273 5.373 1.479 5.373 1.718 0 .859-4.55 1.459-5.357a2.546 2.546 0 0 0 .146-.112.262.262 0 0 1 .069-.011h-.055a2.546 2.546 0 0 0 .928-1.965A2.546 2.546 0 0 0 32 32Z"/>
</svg>
